<?xml version="1.0" encoding="UTF-8"?>
<!DOCTYPE svg PUBLIC "-//W3C//DTD SVG 1.1//EN" "http://www.w3.org/Graphics/SVG/1.1/DTD/svg11.dtd">
<!-- Creator: CorelDRAW X7 -->
<svg xmlns="http://www.w3.org/2000/svg" xml:space="preserve" width="66.6282mm" height="16.8523mm" version="1.1" style="shape-rendering:geometricPrecision; text-rendering:geometricPrecision; image-rendering:optimizeQuality; fill-rule:evenodd; clip-rule:evenodd"
viewBox="0 0 51841 13112"
 xmlns:xlink="http://www.w3.org/1999/xlink">
 <defs>
  <style type="text/css">
   <![CDATA[
    .fil0 {fill:#303841}
    .fil1 {fill:#FF5722}
   ]]>
  </style>
 </defs>
 <g id="Слой_x0020_1">
  <metadata id="CorelCorpID_0Corel-Layer"/>
  <path class="fil0" d="M18081 212c-1559,316 -2650,937 -4224,1399 -2365,694 -10999,2016 -12269,-1063 -172,-464 -916,-621 -1301,-308 -349,284 -345,859 -173,1324 2381,3852 11523,1733 13837,873 2314,-860 3294,-1543 4130,-2225z"/>
  <path class="fil1" d="M13493 3418c-4060,1682 -6393,1309 -9475,776 -2728,-472 -2895,-1208 -3642,-507 -603,565 1546,1347 3058,1541 1138,146 2604,721 4874,491 3200,-324 4736,-911 7011,-3006 -494,39 -1300,487 -1826,705z"/>
  <path class="fil0" d="M14012 4889c-3163,1244 -5130,2427 -10339,1406 -478,-131 -1019,139 -1102,627 -60,346 -316,727 2387,1010 2703,283 4995,223 9054,-3043z"/>
  <path class="fil0" d="M12089 8409c-558,-18 -2097,597 -3570,819 -1439,217 -1758,26 -2862,-188 -823,-160 -1312,-413 -1630,-34 -319,379 -270,945 110,1264 2407,1139 5802,-772 7952,-1861z"/>
  <path class="fil0" d="M10103 10692c-1888,477 -2492,973 -3398,811 -906,-162 -1538,254 -1542,750 -3,495 983,544 1478,548 1351,-380 1800,-822 3462,-2109z"/>
  <polygon class="fil0" points="19104,4585 22378,4585 22378,5244 22790,5244 22790,4173 22033,4173 22033,166 21590,166 21590,4173 19547,4173 19547,166 19104,166 "/>
  <polygon class="fil0" points="23394,1317 23394,4585 23445,4585 25831,2183 25831,4585 26249,4585 26249,1317 26217,1317 23812,3738 23812,1317 "/>
  <path class="fil0" d="M27026 2976c0,502 163,912 489,1233 326,321 715,481 1169,481 515,0 900,-198 1155,-594l0 1683 418 0 0 -1683c259,394 641,591 1146,591 462,0 855,-160 1180,-481 325,-321 487,-730 487,-1230 0,-506 -161,-919 -483,-1242 -321,-323 -720,-485 -1195,-485 -494,0 -872,187 -1135,561l0 -1755 -418 0 0 1755c-253,-374 -631,-561 -1135,-561 -475,0 -874,162 -1195,485 -322,323 -483,736 -483,1242zm778 918c-235,-261 -353,-572 -353,-937 0,-379 124,-695 372,-944 248,-251 548,-376 899,-376 312,0 578,113 799,339 220,224 330,550 330,972 0,267 -23,468 -72,606 -48,138 -120,259 -215,365 -95,105 -221,192 -377,261 -155,69 -302,104 -439,104 -394,0 -709,-130 -944,-390zm2775 56c-222,-222 -334,-528 -334,-918 0,-483 110,-837 328,-1059 219,-224 485,-336 800,-336 349,0 649,125 898,376 249,249 374,564 374,941 0,367 -118,679 -355,940 -237,260 -551,390 -944,390 -289,0 -544,-111 -767,-334z"/>
  <path class="fil0" d="M33852 1317l0 4462 418 0 0 -1760c177,215 374,376 592,484 219,108 458,162 717,162 463,0 858,-167 1185,-501 327,-336 492,-742 492,-1222 0,-469 -166,-871 -496,-1204 -330,-334 -727,-501 -1192,-501 -267,0 -508,57 -724,169 -217,113 -407,284 -574,512l0 -601 -418 0zm560 2317c-111,-196 -166,-419 -166,-666 0,-377 124,-692 373,-945 248,-253 554,-380 918,-380 233,0 450,58 646,173 198,114 355,275 472,482 117,207 176,427 176,658 0,229 -59,449 -177,658 -118,209 -276,372 -475,488 -199,117 -411,176 -637,176 -228,0 -447,-58 -654,-174 -206,-116 -365,-272 -476,-470z"/>
  <path class="fil0" d="M40491 2035c252,258 378,570 378,935 0,235 -57,454 -171,658 -115,203 -270,360 -465,471 -193,111 -408,166 -641,166 -233,0 -447,-55 -641,-166 -195,-111 -350,-268 -465,-471 -113,-204 -171,-423 -171,-658 0,-365 125,-677 377,-935 251,-257 551,-385 900,-385 348,0 648,128 899,385zm-2154 -249c-302,331 -453,723 -453,1175 0,455 159,853 478,1194 318,340 730,510 1232,510 500,0 910,-170 1228,-510 319,-341 478,-739 478,-1194 0,-454 -151,-847 -452,-1178 -331,-364 -750,-546 -1254,-546 -506,0 -926,183 -1257,549z"/>
  <path class="fil0" d="M42075 1317l0 3268 951 0c794,0 1191,-301 1191,-903 0,-430 -213,-720 -637,-871 293,-118 440,-342 440,-673 0,-220 -79,-412 -236,-576 -158,-163 -416,-245 -773,-245l-936 0zm418 1379l0 -1016 275 0c242,0 402,8 480,24 78,16 152,70 223,162 71,91 106,204 106,339 0,131 -34,234 -102,313 -68,78 -140,128 -216,148 -76,20 -240,30 -491,30l-275 0zm0 1532l0 -1144 628 0c185,0 334,53 446,159 113,106 170,248 170,426 0,139 -33,253 -99,343 -65,90 -143,149 -235,175 -91,28 -244,41 -457,41l-453 0z"/>
  <path class="fil0" d="M47779 2970c0,235 -57,454 -171,658 -115,203 -270,360 -465,471 -194,111 -408,166 -641,166 -233,0 -447,-55 -641,-166 -195,-111 -350,-268 -465,-471 -114,-204 -171,-423 -171,-658 0,-365 125,-677 377,-935 251,-257 550,-385 900,-385 348,0 648,128 899,385 252,258 378,570 378,935zm-2985 -9c0,455 159,853 478,1194 318,340 730,510 1232,510 500,0 910,-170 1228,-510 319,-341 478,-739 478,-1194 0,-454 -151,-847 -452,-1178 -331,-364 -750,-546 -1254,-546 -506,0 -926,183 -1257,549 -302,331 -453,723 -453,1175z"/>
  <polygon class="fil0" points="48985,1317 48985,4585 49036,4585 51422,2183 51422,4585 51841,4585 51841,1317 51808,1317 49403,3738 49403,1317 "/>
  <path class="fil0" d="M50423 634c296,0 535,-61 717,-182 181,-121 293,-271 337,-452l-381 0c-88,117 -182,198 -280,244 -99,46 -229,70 -390,70 -158,0 -295,-27 -409,-79 -115,-52 -207,-130 -275,-235l-394 0c50,185 168,337 355,455 186,119 426,179 720,179z"/>
  <path class="fil0" d="M35185 9070c-330,-333 -727,-500 -1192,-500 -266,0 -507,56 -724,169 -216,113 -407,283 -573,512l0 -601 -419 0 0 4462 419 0 0 -1760c176,214 373,375 591,484 219,108 458,162 718,162 462,0 857,-167 1184,-502 328,-335 492,-741 492,-1221 0,-469 -165,-871 -496,-1205zm-2141 286c249,-254 554,-380 919,-380 232,0 449,57 646,172 198,114 355,275 472,482 117,208 175,427 175,659 0,229 -58,448 -176,658 -118,209 -276,372 -475,488 -199,117 -412,175 -637,175 -229,0 -448,-57 -655,-173 -206,-116 -365,-272 -476,-470 -111,-197 -166,-419 -166,-667 0,-376 124,-691 373,-944z"/>
  <path class="fil0" d="M31496 10318c-4,-447 -125,-818 -362,-1115 -333,-422 -780,-633 -1339,-633 -543,0 -977,206 -1300,617 -256,323 -384,693 -384,1106 0,439 151,833 453,1182 301,349 719,523 1254,523 241,0 457,-36 649,-109 190,-73 362,-179 514,-318 153,-139 288,-323 405,-550l-355 -186c-128,212 -248,365 -359,460 -111,96 -246,172 -403,229 -158,58 -322,86 -489,86 -345,0 -637,-121 -873,-363 -235,-241 -357,-551 -365,-929l2954 0zm-707 -901c107,134 189,313 246,538l-2451 0c87,-301 215,-526 385,-676 232,-207 509,-309 832,-309 195,0 381,41 559,123 177,82 320,190 429,324z"/>
  <polygon class="fil0" points="27700,9013 27700,8650 25552,8650 25552,9013 26414,9013 26414,11918 26832,11918 26832,9013 "/>
  <path class="fil0" d="M24778 9203c-333,-422 -780,-633 -1339,-633 -543,0 -977,206 -1300,617 -255,323 -384,693 -384,1106 0,439 151,833 453,1182 301,349 719,523 1254,523 241,0 457,-36 649,-109 190,-73 362,-179 515,-318 152,-139 287,-323 404,-550l-355 -186c-128,212 -248,365 -359,460 -111,96 -245,172 -403,229 -158,58 -321,86 -489,86 -345,0 -637,-121 -873,-363 -235,-241 -357,-551 -365,-929l2955 0c-5,-447 -126,-818 -363,-1115zm-1333 -233c195,0 381,41 559,123 177,82 320,190 429,324 107,134 189,313 246,538l-2451 0c87,-301 215,-526 385,-676 232,-207 509,-309 832,-309z"/>
  <path class="fil0" d="M20981 9470c0,-219 -79,-411 -236,-575 -158,-163 -416,-245 -773,-245l-936 0 0 3268 951 0c794,0 1191,-302 1191,-904 0,-430 -213,-720 -637,-871 293,-118 440,-341 440,-673zm-772 -433c78,16 152,69 223,162 71,91 106,204 106,339 0,130 -34,234 -102,313 -68,78 -139,127 -216,148 -76,19 -240,29 -491,29l-275 0 0 -1015 275 0c242,0 402,8 480,24zm-755 1379l628 0c185,0 334,54 446,159 113,107 170,248 170,427 0,138 -33,252 -99,343 -64,90 -143,148 -235,175 -91,28 -244,41 -457,41l-453 0 0 -1145z"/>
  <polygon class="fil0" points="19104,4585 22378,4585 22378,5244 22790,5244 22790,4173 22033,4173 22033,166 21590,166 21590,4173 19547,4173 19547,166 19104,166 "/>
  <polygon class="fil0" points="23394,1317 23394,4585 23445,4585 25831,2183 25831,4585 26249,4585 26249,1317 26217,1317 23812,3738 23812,1317 "/>
  <path class="fil0" d="M27026 2976c0,502 163,912 489,1233 326,321 715,481 1169,481 515,0 900,-198 1155,-594l0 1683 418 0 0 -1683c259,394 641,591 1146,591 462,0 855,-160 1180,-481 325,-321 487,-730 487,-1230 0,-506 -161,-919 -483,-1242 -321,-323 -720,-485 -1195,-485 -494,0 -872,187 -1135,561l0 -1755 -418 0 0 1755c-253,-374 -631,-561 -1135,-561 -475,0 -874,162 -1195,485 -322,323 -483,736 -483,1242zm778 918c-235,-261 -353,-572 -353,-937 0,-379 124,-695 372,-944 248,-251 548,-376 899,-376 312,0 578,113 799,339 220,224 330,550 330,972 0,267 -23,468 -72,606 -48,138 -120,259 -215,365 -95,105 -221,192 -377,261 -155,69 -302,104 -439,104 -394,0 -709,-130 -944,-390zm2775 56c-222,-222 -334,-528 -334,-918 0,-483 110,-837 328,-1059 219,-224 485,-336 800,-336 349,0 649,125 898,376 249,249 374,564 374,941 0,367 -118,679 -355,940 -237,260 -551,390 -944,390 -289,0 -544,-111 -767,-334z"/>
  <path class="fil0" d="M33852 1317l0 4462 418 0 0 -1760c177,215 374,376 592,484 219,108 458,162 717,162 463,0 858,-167 1185,-501 327,-336 492,-742 492,-1222 0,-469 -166,-871 -496,-1204 -330,-334 -727,-501 -1192,-501 -267,0 -508,57 -724,169 -217,113 -407,284 -574,512l0 -601 -418 0zm560 2317c-111,-196 -166,-419 -166,-666 0,-377 124,-692 373,-945 248,-253 554,-380 918,-380 233,0 450,58 646,173 198,114 355,275 472,482 117,207 176,427 176,658 0,229 -59,449 -177,658 -118,209 -276,372 -475,488 -199,117 -411,176 -637,176 -228,0 -447,-58 -654,-174 -206,-116 -365,-272 -476,-470z"/>
  <path class="fil0" d="M40491 2035c252,258 378,570 378,935 0,235 -57,454 -171,658 -115,203 -270,360 -465,471 -193,111 -408,166 -641,166 -233,0 -447,-55 -641,-166 -195,-111 -350,-268 -465,-471 -113,-204 -171,-423 -171,-658 0,-365 125,-677 377,-935 251,-257 551,-385 900,-385 348,0 648,128 899,385zm-2154 -249c-302,331 -453,723 -453,1175 0,455 159,853 478,1194 318,340 730,510 1232,510 500,0 910,-170 1228,-510 319,-341 478,-739 478,-1194 0,-454 -151,-847 -452,-1178 -331,-364 -750,-546 -1254,-546 -506,0 -926,183 -1257,549z"/>
  <path class="fil0" d="M42075 1317l0 3268 951 0c794,0 1191,-301 1191,-903 0,-430 -213,-720 -637,-871 293,-118 440,-342 440,-673 0,-220 -79,-412 -236,-576 -158,-163 -416,-245 -773,-245l-936 0zm418 1379l0 -1016 275 0c242,0 402,8 480,24 78,16 152,70 223,162 71,91 106,204 106,339 0,131 -34,234 -102,313 -68,78 -140,128 -216,148 -76,20 -240,30 -491,30l-275 0zm0 1532l0 -1144 628 0c185,0 334,53 446,159 113,106 170,248 170,426 0,139 -33,253 -99,343 -65,90 -143,149 -235,175 -91,28 -244,41 -457,41l-453 0z"/>
  <path class="fil0" d="M47779 2970c0,235 -57,454 -171,658 -115,203 -270,360 -465,471 -194,111 -408,166 -641,166 -233,0 -447,-55 -641,-166 -195,-111 -350,-268 -465,-471 -114,-204 -171,-423 -171,-658 0,-365 125,-677 377,-935 251,-257 550,-385 900,-385 348,0 648,128 899,385 252,258 378,570 378,935zm-2985 -9c0,455 159,853 478,1194 318,340 730,510 1232,510 500,0 910,-170 1228,-510 319,-341 478,-739 478,-1194 0,-454 -151,-847 -452,-1178 -331,-364 -750,-546 -1254,-546 -506,0 -926,183 -1257,549 -302,331 -453,723 -453,1175z"/>
  <polygon class="fil0" points="48985,1317 48985,4585 49036,4585 51422,2183 51422,4585 51841,4585 51841,1317 51808,1317 49403,3738 49403,1317 "/>
  <path class="fil0" d="M50423 634c296,0 535,-61 717,-182 181,-121 293,-271 337,-452l-381 0c-88,117 -182,198 -280,244 -99,46 -229,70 -390,70 -158,0 -295,-27 -409,-79 -115,-52 -207,-130 -275,-235l-394 0c50,185 168,337 355,455 186,119 426,179 720,179z"/>
  <path class="fil0" d="M35185 9070c-330,-333 -727,-500 -1192,-500 -266,0 -507,56 -724,169 -216,113 -407,283 -573,512l0 -601 -419 0 0 4462 419 0 0 -1760c176,214 373,375 591,484 219,108 458,162 718,162 462,0 857,-167 1184,-502 328,-335 492,-741 492,-1221 0,-469 -165,-871 -496,-1205zm-2141 286c249,-254 554,-380 919,-380 232,0 449,57 646,172 198,114 355,275 472,482 117,208 175,427 175,659 0,229 -58,448 -176,658 -118,209 -276,372 -475,488 -199,117 -412,175 -637,175 -229,0 -448,-57 -655,-173 -206,-116 -365,-272 -476,-470 -111,-197 -166,-419 -166,-667 0,-376 124,-691 373,-944z"/>
  <path class="fil0" d="M31496 10318c-4,-447 -125,-818 -362,-1115 -333,-422 -780,-633 -1339,-633 -543,0 -977,206 -1300,617 -256,323 -384,693 -384,1106 0,439 151,833 453,1182 301,349 719,523 1254,523 241,0 457,-36 649,-109 190,-73 362,-179 514,-318 153,-139 288,-323 405,-550l-355 -186c-128,212 -248,365 -359,460 -111,96 -246,172 -403,229 -158,58 -322,86 -489,86 -345,0 -637,-121 -873,-363 -235,-241 -357,-551 -365,-929l2954 0zm-707 -901c107,134 189,313 246,538l-2451 0c87,-301 215,-526 385,-676 232,-207 509,-309 832,-309 195,0 381,41 559,123 177,82 320,190 429,324z"/>
  <polygon class="fil0" points="27700,9013 27700,8650 25552,8650 25552,9013 26414,9013 26414,11918 26832,11918 26832,9013 "/>
  <path class="fil0" d="M24778 9203c-333,-422 -780,-633 -1339,-633 -543,0 -977,206 -1300,617 -255,323 -384,693 -384,1106 0,439 151,833 453,1182 301,349 719,523 1254,523 241,0 457,-36 649,-109 190,-73 362,-179 515,-318 152,-139 287,-323 404,-550l-355 -186c-128,212 -248,365 -359,460 -111,96 -245,172 -403,229 -158,58 -321,86 -489,86 -345,0 -637,-121 -873,-363 -235,-241 -357,-551 -365,-929l2955 0c-5,-447 -126,-818 -363,-1115zm-1333 -233c195,0 381,41 559,123 177,82 320,190 429,324 107,134 189,313 246,538l-2451 0c87,-301 215,-526 385,-676 232,-207 509,-309 832,-309z"/>
  <path class="fil0" d="M20981 9470c0,-219 -79,-411 -236,-575 -158,-163 -416,-245 -773,-245l-936 0 0 3268 951 0c794,0 1191,-302 1191,-904 0,-430 -213,-720 -637,-871 293,-118 440,-341 440,-673zm-772 -433c78,16 152,69 223,162 71,91 106,204 106,339 0,130 -34,234 -102,313 -68,78 -139,127 -216,148 -76,19 -240,29 -491,29l-275 0 0 -1015 275 0c242,0 402,8 480,24zm-755 1379l628 0c185,0 334,54 446,159 113,107 170,248 170,427 0,138 -33,252 -99,343 -64,90 -143,148 -235,175 -91,28 -244,41 -457,41l-453 0 0 -1145z"/>
 </g>
</svg>
