<svg width="222" height="158" viewBox="0 0 222 158" fill="none" xmlns="http://www.w3.org/2000/svg">
<path fill-rule="evenodd" clip-rule="evenodd" d="M221.474 2.60393C202.378 6.48399 189.014 14.109 169.735 19.7818C140.766 28.3032 35.0078 44.5356 19.4516 6.72957C17.3448 1.03226 8.23154 -0.895489 3.51568 2.94774C-0.759219 6.43488 -0.710223 13.4951 1.3966 19.2047C30.5615 66.5022 142.542 40.4836 170.886 29.924C199.23 19.3643 211.234 10.978 221.474 2.60393Z" fill="#303841"/>
<path fill-rule="evenodd" clip-rule="evenodd" d="M165.276 41.9682C115.545 62.621 86.9683 58.041 49.2169 51.4965C15.8017 45.7009 13.7561 36.6638 4.6061 45.2712C-2.78004 52.2086 23.543 61.8106 42.0635 64.1926C56.0029 65.9853 73.9599 73.0455 101.765 70.2215C140.962 66.2432 159.776 59.0356 187.643 33.3118C181.592 33.7906 171.719 39.2915 165.276 41.9682Z" fill="#FF5722"/>
<path fill-rule="evenodd" clip-rule="evenodd" d="M171.633 60.0298C132.89 75.3045 108.796 89.8301 44.9908 77.2936C39.1358 75.6851 32.5091 79.0003 31.4924 84.9923C30.7575 89.2407 27.6217 93.9189 60.7307 97.3938C93.8398 100.869 121.914 100.132 171.633 60.0298Z" fill="#303841"/>
<path fill-rule="evenodd" clip-rule="evenodd" d="M148.078 103.252C141.243 103.031 122.392 110.582 104.349 113.308C86.7232 115.973 82.8157 113.627 69.2929 111C59.2119 109.035 53.2222 105.929 49.327 110.582C45.4196 115.236 46.0198 122.186 50.6744 126.102C80.1577 140.088 121.743 116.623 148.078 103.252Z" fill="#303841"/>
<path fill-rule="evenodd" clip-rule="evenodd" d="M123.752 131.283C100.626 137.14 93.2274 143.23 82.1299 141.241C71.0323 139.252 63.2909 144.36 63.2419 150.45C63.2052 156.528 75.2827 157.13 81.3459 157.179C97.8943 152.513 103.394 147.086 123.752 131.283Z" fill="#303841"/>
</svg>
