<?xml version="1.0" encoding="utf-8"?>
<!-- Generator: Adobe Illustrator 16.0.0, SVG Export Plug-In . SVG Version: 6.00 Build 0)  -->
<!DOCTYPE svg PUBLIC "-//W3C//DTD SVG 1.1//EN" "http://www.w3.org/Graphics/SVG/1.1/DTD/svg11.dtd">
<svg version="1.1" id="Слой_1" xmlns="http://www.w3.org/2000/svg" xmlns:xlink="http://www.w3.org/1999/xlink" x="0px" y="0px"
	 width="165px" height="48.976px" viewBox="0 0 165 48.976" enable-background="new 0 0 165 48.976" xml:space="preserve">
<g>
	<path fill="#0D0F0F" d="M73.972,16.327l0.008,13.53l6.068-13.628h3.49v16.118l-2.347,0.035v-10.53l-0.001-2.543l-5.98,13.043
		l-3.804-0.005V16.326L73.972,16.327z"/>
	<path fill="#0D0F0F" d="M102.175,16.327l0.01,13.53l6.065-13.628h3.491v16.118l-2.346,0.035v-10.53l-0.002-2.543l-5.979,13.043
		l-3.806-0.005V16.326L102.175,16.327z"/>
	<polyline fill="#181717" points="38.159,0 24.185,47.978 26.674,47.978 40.648,0 38.159,0 	"/>
	<polyline fill="#181717" points="45.51,0 31.536,47.978 34.029,47.978 48.001,0 45.51,0 	"/>
	<polyline fill="#181717" points="30.804,0 16.832,47.978 19.322,47.978 33.297,0 30.804,0 	"/>
	<polygon fill="#F6CE45" points="0,0 25.943,0 11.971,47.978 0,47.978 	"/>
	<polygon fill="#F6CE45" points="48.247,47.978 48.247,15.816 38.831,47.978 	"/>
	<path fill="#0D0F0F" d="M95.784,16.229v2.038l-7.683,0.003v4.18l4.727-0.015c1.444,0,2.512,0.383,3.204,1.143
		c0.689,0.762,1.037,2.016,1.037,3.766c0,1.748-0.362,3.013-1.085,3.797c-0.673,0.74-1.723,1.109-3.156,1.109h-7.082V16.229H95.784z
		 M88.102,24.736l-0.05,5.511h4.079c0.539,0,1.809,0.103,2.368-0.888c0.146-0.258,0.399-1.298,0.399-1.892
		c0-1.295-0.324-2.135-0.688-2.409c-0.529-0.399-1.587-0.323-2.137-0.323H88.102z"/>
	<path fill="#0D0F0F" d="M116.629,16.229v6.229h6.54v-6.229h2.305v16.021h-2.305v-7.488h-6.54v7.515l-2.378-0.026V16.229H116.629z"
		/>
	<path fill="#0D0F0F" d="M134.222,18.489v13.76h-2.271V18.516h-4.572v-2.288h11.387v2.261H134.222z"/>
	<path fill="#0D0F0F" d="M154.588,16.229v6.229h1.664l4.088-6.229h3.361l-5.681,7.194l6.038,8.827h-3.426l-4.307-7.187h-1.738v7.187
		h-2.259V16.229H154.588z"/>
	<path fill="#0E0F10" d="M143.77,24.767h-1.06c0.014,0.852,0.018,3.365,0.109,3.837c0.095,0.479,0.442,1.679,1.524,1.679h1.785
		h4.297v1.966h-3.071h-3.87c-1.17,0-1.984-0.38-2.438-1.149c-0.452-0.763-0.679-1.919-0.679-3.464v-6.795
		c0-1.547,0.227-2.696,0.679-3.466c0.453-0.763,1.268-1.146,2.438-1.146h3.87h3.071v2.04h-4.297h-2.026
		c-0.647,0-1.192,0.792-1.295,1.271c-0.099,0.49-0.084,2.15-0.098,2.927h1.06h5.602v2.301H143.77z"/>
	<path fill="#0E0F10" d="M66.578,29.374c-0.368,0.558-0.576,0.902-1.579,0.902h-2.643c-1,0-1.688-0.267-2.076-0.808
		c-0.388-0.536-0.578-1.651-0.578-2.737v-4.78c0-1.084,0.19-2.197,0.578-2.736c0.388-0.536,1.077-0.806,2.076-0.806h2.643
		c1.003,0,1.287,0.353,1.656,0.909c0.233,0.354,0.345,1.005,0.373,1.568h2.17c0-1.502-0.26-2.649-0.797-3.457
		c-0.531-0.804-1.219-1.2-2.663-1.2h-4.753c-1.438,0-2.432,0.391-2.99,1.161c-0.562,0.778-0.836,1.942-0.836,3.511v6.885
		c0,1.564,0.274,2.734,0.836,3.511c0.558,0.778,1.552,1.16,2.99,1.16h4.753c1.444,0,2.132-0.399,2.663-1.203
		c0.537-0.803,0.797-1.945,0.797-3.456h-2.182C67.015,28.326,66.813,29.023,66.578,29.374z"/>
	<path fill="#0D0F0F" d="M57.119,44.272c0-1.361,0.146-2.251,0.437-2.669c0.291-0.42,0.886-0.63,1.786-0.63
		c0.896,0,1.485,0.208,1.769,0.625c0.284,0.416,0.426,1.307,0.426,2.674c0,1.355-0.142,2.242-0.429,2.661
		c-0.287,0.419-0.879,0.629-1.78,0.629c-0.894,0-1.483-0.204-1.765-0.61C57.268,46.526,57.119,45.634,57.119,44.272z M57.703,44.272
		c0,1.149,0.094,1.879,0.281,2.193c0.188,0.312,0.638,0.468,1.35,0.468c0.709,0,1.155-0.156,1.34-0.468
		c0.187-0.314,0.278-1.044,0.278-2.193c0-1.161-0.091-1.896-0.271-2.205c-0.18-0.311-0.628-0.464-1.347-0.464
		c-0.716,0-1.167,0.154-1.354,0.468C57.795,42.384,57.703,43.12,57.703,44.272z"/>
	<path fill="#0D0F0F" d="M62.899,41.034h3.48v0.629h-2.896v2.231h1.757c0.581,0,0.987,0.124,1.215,0.378
		c0.23,0.253,0.345,0.711,0.345,1.379c0,0.659-0.117,1.132-0.354,1.417c-0.237,0.283-0.635,0.426-1.192,0.426h-2.355V41.034z
		 M63.483,44.521v2.344h1.729c0.405,0,0.675-0.096,0.816-0.284c0.126-0.167,0.19-0.477,0.19-0.93c0-0.477-0.073-0.785-0.215-0.923
		c-0.144-0.137-0.433-0.207-0.869-0.207H63.483z"/>
	<path fill="#0D0F0F" d="M68.757,43.895h2.679v0.627h-2.679v2.344h2.791v0.629h-3.375v-6.46h3.39v0.629h-2.805V43.895z"/>
	<path fill="#0D0F0F" d="M76.337,45.341h0.569c0,0.85-0.143,1.433-0.429,1.747c-0.286,0.317-0.838,0.475-1.66,0.475
		c-0.821,0-1.369-0.201-1.645-0.603c-0.306-0.441-0.458-1.332-0.458-2.67c0-1.331,0.151-2.224,0.45-2.68
		c0.282-0.424,0.832-0.637,1.653-0.637c0.801,0,1.348,0.17,1.64,0.509c0.252,0.298,0.378,0.832,0.378,1.602h-0.568
		c-0.052-0.604-0.153-0.991-0.304-1.163c-0.182-0.213-0.565-0.317-1.146-0.317c-0.609,0-1.015,0.171-1.216,0.516
		C73.4,42.464,73.3,43.188,73.3,44.29c0,1.096,0.098,1.813,0.298,2.144c0.199,0.335,0.605,0.5,1.22,0.5
		c0.614,0,1.021-0.105,1.22-0.318C76.238,46.404,76.337,45.979,76.337,45.341z"/>
	<path fill="#0D0F0F" d="M78.067,41.034h4.246v6.46h-0.584v-5.831h-3.081v5.831h-0.582V41.034z"/>
	<path fill="#0D0F0F" d="M84.375,43.895h2.679v0.627h-2.679v2.344h2.79v0.629h-3.374v-6.46h3.389v0.629h-2.805V43.895z"/>
	<path fill="#0D0F0F" d="M88.402,41.034h0.586v1.642c0,0.57,0.106,0.938,0.322,1.104c0.163,0.127,0.507,0.191,1.027,0.191
		c0.421,0,0.724-0.01,0.906-0.025c0.184-0.019,0.363-0.05,0.541-0.096v-2.816h0.584v6.46h-0.584v-3.032
		c-0.187,0.053-0.426,0.089-0.717,0.107c-0.29,0.021-0.582,0.031-0.871,0.031c-0.714,0-1.19-0.137-1.431-0.411
		c-0.243-0.273-0.364-0.82-0.364-1.645V41.034z"/>
	<path fill="#0D0F0F" d="M94.43,41.034v5.969l2.995-5.969h0.936v6.46h-0.583v-5.908l-3.003,5.908h-0.929v-6.46H94.43z"/>
	<path fill="#0D0F0F" d="M99.835,47.494v-6.46h2.541c0.458,0,0.796,0.123,1.009,0.365c0.213,0.246,0.319,0.653,0.319,1.224
		c0,0.426-0.033,0.731-0.098,0.916c-0.094,0.26-0.279,0.45-0.556,0.57c0.327,0.107,0.548,0.284,0.661,0.524
		c0.097,0.207,0.146,0.537,0.146,0.99c0,0.616-0.096,1.071-0.289,1.37c-0.215,0.334-0.563,0.5-1.046,0.5H99.835z M100.42,41.663
		v2.231h1.675c0.388,0,0.656-0.087,0.805-0.255c0.147-0.171,0.223-0.486,0.223-0.948c0-0.396-0.058-0.67-0.17-0.813
		c-0.113-0.144-0.325-0.215-0.64-0.215H100.42z M100.42,44.521v2.344h1.625c0.483,0,0.8-0.063,0.949-0.19
		c0.188-0.153,0.281-0.486,0.281-0.997c0-0.507-0.067-0.83-0.205-0.975c-0.109-0.121-0.37-0.182-0.779-0.182H100.42z"/>
	<path fill="#0D0F0F" d="M104.879,47.494l1.919-6.46h0.852l1.963,6.46h-0.627l-0.394-1.335h-2.659l-0.42,1.335H104.879z
		 M108.401,45.529l-1.167-3.962l-1.159,3.962H108.401z"/>
	<path fill="#0D0F0F" d="M114.055,44.91h-1.623l-1.183,2.584h-0.71l1.246-2.671c-0.353-0.074-0.629-0.267-0.83-0.577
		c-0.221-0.335-0.332-0.775-0.332-1.32c0-0.657,0.141-1.137,0.42-1.438c0.278-0.302,0.698-0.453,1.261-0.453h2.335v6.46h-0.584
		V44.91z M114.055,44.282v-2.619h-1.87c-0.36,0-0.615,0.114-0.759,0.342c-0.146,0.228-0.219,0.579-0.219,1.058
		c0,0.812,0.42,1.22,1.259,1.22H114.055z"/>
	<path fill="#0D0F0F" d="M118.688,41.034h3.713v6.46h-0.583v-5.831h-2.545v3.942c0,0.649-0.071,1.118-0.212,1.405
		c-0.154,0.322-0.414,0.483-0.779,0.483h-0.373v-0.629h0.141c0.238,0,0.4-0.069,0.484-0.206c0.103-0.168,0.154-0.492,0.154-0.977
		V41.034z"/>
	<path fill="#0D0F0F" d="M124.461,41.034v5.969l2.997-5.969h0.936v6.46h-0.585v-5.908l-3.003,5.908h-0.928v-6.46H124.461z"/>
	<path fill="#0D0F0F" d="M129.926,46.865c0.192-0.362,0.329-0.742,0.411-1.143c0.081-0.4,0.124-0.853,0.124-1.358v-3.33h3.578v5.831
		h0.38v2.11h-0.533v-1.481h-3.749v1.481h-0.533v-2.11H129.926z M133.456,41.663h-2.412v2.612c0,0.64-0.033,1.142-0.101,1.506
		c-0.069,0.366-0.188,0.728-0.355,1.084h2.868V41.663z"/>
	<path fill="#0D0F0F" d="M136.169,43.895h2.681v0.627h-2.681v2.344h2.793v0.629h-3.375v-6.46h3.388v0.629h-2.806V43.895z"/>
	<path fill="#0D0F0F" d="M140.854,44.972v2.522h-0.584v-6.46h2.51c0.507,0,0.864,0.143,1.078,0.432
		c0.209,0.287,0.315,0.755,0.315,1.407c0,0.794-0.123,1.342-0.369,1.646c-0.248,0.301-0.708,0.453-1.383,0.453H140.854z
		 M140.854,41.663v2.678h1.398c0.498,0,0.837-0.084,1.021-0.249c0.21-0.196,0.314-0.571,0.314-1.125
		c0-0.483-0.053-0.814-0.162-0.992c-0.127-0.208-0.37-0.312-0.73-0.312H140.854z"/>
	<path fill="#0D0F0F" d="M148.926,45.341h0.569c0,0.85-0.143,1.433-0.429,1.747c-0.286,0.317-0.84,0.475-1.66,0.475
		c-0.819,0-1.369-0.201-1.644-0.603c-0.307-0.441-0.458-1.332-0.458-2.67c0-1.331,0.15-2.224,0.45-2.68
		c0.28-0.424,0.832-0.637,1.651-0.637c0.803,0,1.349,0.17,1.64,0.509c0.254,0.298,0.38,0.832,0.38,1.602h-0.569
		c-0.053-0.604-0.153-0.991-0.304-1.163c-0.182-0.213-0.563-0.317-1.146-0.317c-0.608,0-1.016,0.171-1.216,0.516
		c-0.202,0.345-0.303,1.068-0.303,2.171c0,1.096,0.1,1.813,0.3,2.144c0.199,0.335,0.605,0.5,1.219,0.5
		c0.616,0,1.021-0.105,1.221-0.318C148.825,46.404,148.926,45.979,148.926,45.341z"/>
	<path fill="#0D0F0F" d="M152.556,41.663v5.831h-0.586v-5.831h-1.701v-0.629h3.988v0.629H152.556z"/>
	<path fill="#0D0F0F" d="M155.374,47.494v-6.46h2.538c0.46,0,0.795,0.123,1.01,0.365c0.214,0.246,0.319,0.653,0.319,1.224
		c0,0.426-0.032,0.731-0.1,0.916c-0.094,0.26-0.277,0.45-0.554,0.57c0.326,0.107,0.548,0.284,0.661,0.524
		c0.098,0.207,0.147,0.537,0.147,0.99c0,0.616-0.098,1.071-0.288,1.37c-0.216,0.334-0.566,0.5-1.05,0.5H155.374z M155.957,41.663
		v2.231h1.674c0.389,0,0.658-0.087,0.807-0.255c0.146-0.171,0.22-0.486,0.22-0.948c0-0.396-0.055-0.67-0.17-0.813
		c-0.111-0.144-0.322-0.215-0.638-0.215H155.957z M155.957,44.521v2.344h1.624c0.483,0,0.8-0.063,0.949-0.19
		c0.188-0.153,0.282-0.486,0.282-0.997c0-0.507-0.068-0.83-0.204-0.975c-0.112-0.121-0.373-0.182-0.78-0.182H155.957z"/>
	<path fill="#0D0F0F" d="M160.585,44.272c0-1.361,0.145-2.251,0.435-2.669c0.29-0.42,0.887-0.63,1.786-0.63
		c0.896,0,1.485,0.208,1.769,0.625c0.285,0.416,0.426,1.307,0.426,2.674c0,1.355-0.143,2.242-0.429,2.661
		c-0.284,0.419-0.879,0.629-1.779,0.629c-0.896,0-1.483-0.204-1.764-0.61C160.731,46.526,160.585,45.634,160.585,44.272z
		 M161.167,44.272c0,1.149,0.095,1.879,0.283,2.193c0.188,0.312,0.637,0.468,1.349,0.468c0.708,0,1.155-0.156,1.34-0.468
		c0.185-0.314,0.277-1.044,0.277-2.193c0-1.161-0.089-1.896-0.271-2.205c-0.179-0.311-0.628-0.464-1.347-0.464
		c-0.717,0-1.168,0.154-1.353,0.468C161.261,42.384,161.167,43.12,161.167,44.272z"/>
</g>
</svg>
